<svg width="33" height="24" viewBox="0 0 33 24" fill="none" xmlns="http://www.w3.org/2000/svg">
<g clip-path="url(#clip0_1418_40)">
<path d="M13.9269 3.13593L15.5344 2.0953C16.215 1.65468 17.3156 1.65468 17.989 2.0953L32.065 11.2031C32.7456 11.6437 32.7456 12.3562 32.065 12.7922L17.989 21.9047C17.3083 22.3453 16.2078 22.3453 15.5344 21.9047L13.9269 20.8641C13.239 20.4187 13.2535 19.6922 13.9559 19.2562L22.681 13.875H1.87108C0.90806 13.875 0.133301 13.3734 0.133301 12.75V11.25C0.133301 10.6266 0.90806 10.125 1.87108 10.125H22.681L13.9559 4.74374C13.2463 4.3078 13.2318 3.58124 13.9269 3.13593Z" fill="black"/>
</g>
<defs>
<clipPath id="clip0_1418_40">
<rect width="32.4385" height="24" fill="white" transform="translate(0.133301)"/>
</clipPath>
</defs>
</svg>
