<svg width="22" height="22" viewBox="0 0 22 22" fill="none" xmlns="http://www.w3.org/2000/svg">
<rect x="0.773926" y="0.767822" width="20.4324" height="21" rx="5" fill="white"/>
<path d="M9.51372 17.2152C9.31072 17.5022 9.11851 17.6436 8.93476 17.6436C8.81226 17.6436 8.74255 17.5719 8.72039 17.4296C8.71164 17.4001 8.71164 17.2884 8.71164 17.0737V13.3521H7.79639V17.3491C7.79639 17.7063 7.82672 17.9473 7.87718 18.1004C7.96847 18.3565 8.17205 18.4763 8.46722 18.4763C8.8038 18.4763 9.14972 18.2731 9.51343 17.8554V18.4069H10.4301V13.3523H9.51372V17.2152Z" fill="#FF0000"/>
<path d="M4.46973 12.578H5.54714V18.4069H6.56564V12.578H7.66289V11.623H4.46973V12.578Z" fill="#FF0000"/>
<path d="M10.7068 8.15864C11.0051 8.15864 11.1481 7.92239 11.1481 7.4496V5.3006C11.1481 4.82839 11.0051 4.59302 10.7068 4.59302C10.4081 4.59302 10.2649 4.82839 10.2649 5.3006V7.4496C10.2652 7.9221 10.4081 8.15864 10.7068 8.15864Z" fill="#FF0000"/>
<path d="M13.0847 13.2905C12.7481 13.2905 12.4342 13.4748 12.1388 13.8388V11.623H11.2227V18.4069H12.1388V17.9163C12.4444 18.2952 12.7592 18.4763 13.0847 18.4763C13.4495 18.4763 13.6945 18.2844 13.817 17.9085C13.878 17.6941 13.9092 17.3575 13.9092 16.89V14.8772C13.9092 14.3988 13.878 14.0646 13.817 13.8613C13.6942 13.4824 13.4495 13.2905 13.0847 13.2905ZM12.9934 16.9617C12.9934 17.4182 12.8589 17.6433 12.5949 17.6433C12.4444 17.6433 12.2916 17.5716 12.1385 17.4185V14.3373C12.2916 14.1865 12.4442 14.1148 12.5949 14.1148C12.8592 14.1148 12.9934 14.3487 12.9934 14.8045V16.9617Z" fill="#FF0000"/>
<path d="M16.0017 13.2906C15.5345 13.2906 15.1693 13.463 14.905 13.8092C14.7102 14.0644 14.6218 14.4594 14.6218 14.9992V16.7702C14.6218 17.3069 14.7216 17.7062 14.9161 17.9585C15.1807 18.3035 15.5452 18.4762 16.0247 18.4762C16.5031 18.4762 16.8785 18.2951 17.1322 17.9287C17.2441 17.7642 17.3172 17.5764 17.346 17.3795C17.3542 17.2876 17.3655 17.0841 17.3655 16.7895V16.6553H16.4307C16.4307 17.0228 16.4194 17.2261 16.4109 17.276C16.3587 17.5207 16.2269 17.6432 16.0017 17.6432C15.6873 17.6432 15.5345 17.4099 15.5345 16.942V16.046H17.3658V14.9989C17.3658 14.4588 17.274 14.0641 17.0823 13.8089C16.826 13.4627 16.4614 13.2906 16.0017 13.2906ZM16.45 15.2839H15.5345V14.8164C15.5345 14.3491 15.6873 14.1152 15.9935 14.1152C16.2966 14.1152 16.45 14.3491 16.45 14.8164V15.2839Z" fill="#FF0000"/>
<path d="M19.3748 0.767822H2.45817C1.33525 0.767822 0.416504 1.68657 0.416504 2.80949V19.7262C0.416504 20.8491 1.33525 21.7678 2.45817 21.7678H19.3748C20.4978 21.7678 21.4165 20.8491 21.4165 19.7262V2.80949C21.4165 1.68657 20.4978 0.767822 19.3748 0.767822ZM12.8357 3.82157H13.7582V7.58174C13.7582 7.79932 13.7582 7.9122 13.7696 7.94195C13.79 8.08545 13.8623 8.15866 13.9866 8.15866C14.1715 8.15866 14.366 8.01516 14.5711 7.72524V3.82157H15.4968V8.92866H14.5711V8.37157C14.2027 8.7942 13.8513 8.99953 13.5138 8.99953C13.2157 8.99953 13.0101 8.87849 12.9176 8.61949C12.8666 8.4652 12.8357 8.22049 12.8357 7.85999V3.82157ZM9.33946 5.48641C9.33946 4.9407 9.4325 4.54141 9.62938 4.28328C9.88546 3.93445 10.246 3.75974 10.7068 3.75974C11.1705 3.75974 11.5305 3.93445 11.7868 4.28328C11.9805 4.54141 12.0741 4.9407 12.0741 5.48641V7.27578C12.0741 7.81828 11.9808 8.22078 11.7868 8.47716C11.5305 8.82511 11.1708 8.99982 10.7068 8.99982C10.2457 8.99982 9.88517 8.82511 9.62938 8.47716C9.4325 8.22078 9.33946 7.81828 9.33946 7.27578V5.48641ZM6.86438 2.07507L7.59325 4.76628L8.29296 2.07507H9.33071L8.09638 6.15316V8.92866H7.06971V6.15316C6.97696 5.66082 6.77163 4.94041 6.44263 3.98461C6.22621 3.34878 6.00075 2.71003 5.78463 2.07507H6.86438ZM18.2295 18.7106C18.0445 19.5164 17.3848 20.1109 16.5915 20.1992C14.712 20.4092 12.81 20.4104 10.9165 20.4092C9.02271 20.4104 7.12075 20.4092 5.24155 20.1992C4.44792 20.1106 3.78934 19.5162 3.60413 18.7106C3.34017 17.5626 3.34017 16.3096 3.34017 15.1283C3.34017 13.9459 3.34309 12.6938 3.60734 11.5455C3.79225 10.7399 4.45113 10.1458 5.24475 10.0571C7.12396 9.84653 9.02592 9.84595 10.9197 9.84653C12.8132 9.84595 14.7152 9.84653 16.5947 10.0571C17.3877 10.1458 18.0472 10.7399 18.2324 11.5455C18.4963 12.6941 18.4949 13.9459 18.4949 15.1283C18.4952 16.3096 18.4937 17.5626 18.2295 18.7106Z" fill="#FF0000"/>
</svg>
