<svg width="22" height="22" viewBox="0 0 22 22" fill="none" xmlns="http://www.w3.org/2000/svg">
<rect x="0.583252" y="0.767822" width="21" height="21" rx="5" fill="white"/>
<path d="M3.49992 8.05949C3.87041 4.55949 6.85014 1.64282 8.45825 0.767822H3.4211C1.15083 1.00116 0.583257 2.80949 0.583252 3.68449V18.8512C0.810279 21.1845 2.56974 21.7678 3.4211 21.7678H18.7454C21.0157 21.7678 21.5833 19.6289 21.5833 18.5595V15.6428C21.3562 16.1095 20.1643 17.0039 19.5968 17.3928C15.7373 19.9595 11.5562 19.24 9.94812 18.5595C9.26704 18.3262 8.71839 18.4623 8.5292 18.5595C7.16704 19.4928 4.9346 19.3373 3.98866 19.1428L5.12379 18.2678C6.48595 17.1012 6.25893 16.4206 5.97515 16.2262C2.79677 12.9595 3.49992 9.51782 3.49992 8.05949Z" fill="#0172B1"/>
<path d="M6.962 10.8802H8.954C9.13533 10.8802 9.282 10.9309 9.394 11.0322C9.506 11.1335 9.562 11.2669 9.562 11.4322C9.562 11.5815 9.50333 11.7149 9.386 11.8322C9.274 11.9282 9.13 11.9762 8.954 11.9762H6.162C6.00733 11.9762 5.90067 11.9655 5.842 11.9442C5.78333 11.9229 5.73 11.8989 5.682 11.8722C5.63933 11.8402 5.594 11.8002 5.546 11.7522C5.43933 11.6455 5.386 11.5042 5.386 11.3282C5.386 11.2482 5.39667 11.1842 5.418 11.1362L5.546 10.9282L7.938 7.7362H6.09C5.93 7.7362 5.786 7.6882 5.658 7.5922C5.54067 7.49086 5.482 7.35753 5.482 7.1922C5.482 7.03753 5.538 6.90686 5.65 6.8002C5.76733 6.69353 5.914 6.6402 6.09 6.6402H8.746C8.87933 6.6402 8.978 6.65086 9.042 6.6722C9.11133 6.6882 9.186 6.73353 9.266 6.8082C9.39933 6.92553 9.466 7.06153 9.466 7.2162C9.466 7.3922 9.40733 7.56553 9.29 7.7362L6.962 10.8802ZM12.4641 11.5682C12.3361 11.7282 12.1921 11.8509 12.0321 11.9362C11.8774 12.0162 11.6934 12.0562 11.4801 12.0562L11.1681 12.0322C11.1254 12.0269 11.0774 12.0162 11.0241 12.0002C10.9707 11.9842 10.9174 11.9655 10.8641 11.9442C10.6881 11.8642 10.5094 11.7522 10.3281 11.6082C10.0987 11.4002 9.9254 11.1549 9.80806 10.8722C9.69073 10.5842 9.63206 10.2749 9.63206 9.9442C9.63206 9.62953 9.68006 9.3442 9.77606 9.0882C9.87206 8.8322 10.0294 8.59486 10.2481 8.3762C10.4081 8.2162 10.5947 8.0882 10.8081 7.9922C11.0214 7.89086 11.2374 7.8402 11.4561 7.8402C11.6641 7.8402 11.8401 7.8722 11.9841 7.9362C12.1281 8.0002 12.2907 8.12286 12.4721 8.3042C12.5201 8.1762 12.5894 8.0722 12.6801 7.9922C12.7761 7.9122 12.8961 7.8722 13.0401 7.8722C13.2001 7.8722 13.3387 7.93086 13.4561 8.0482C13.5787 8.16553 13.6401 8.30686 13.6401 8.4722V11.3362C13.6401 11.5175 13.5841 11.6802 13.4721 11.8242C13.3654 11.9629 13.2187 12.0322 13.0321 12.0322C12.9094 12.0322 12.7921 11.9922 12.6801 11.9122C12.5841 11.8322 12.5121 11.7175 12.4641 11.5682ZM10.8081 9.9282C10.8081 10.2055 10.8667 10.4375 10.9841 10.6242C11.1227 10.8482 11.3227 10.9602 11.5841 10.9602C11.8294 10.9602 12.0321 10.8642 12.1921 10.6722C12.3521 10.4749 12.4321 10.2455 12.4321 9.9842C12.4321 9.69086 12.3681 9.4482 12.2401 9.2562C12.0907 9.04286 11.8721 8.9362 11.5841 8.9362C11.3387 8.9362 11.1467 9.0402 11.0081 9.2482C10.8747 9.45086 10.8081 9.67753 10.8081 9.9282ZM15.4628 6.7602V11.3762C15.4628 11.5575 15.4121 11.7122 15.3108 11.8402C15.2148 11.9682 15.0681 12.0322 14.8708 12.0322C14.6895 12.0322 14.5455 11.9709 14.4388 11.8482C14.3375 11.7149 14.2868 11.5575 14.2868 11.3762V6.7602C14.2868 6.57886 14.3375 6.42686 14.4388 6.3042C14.5455 6.1762 14.6895 6.1122 14.8708 6.1122C15.0521 6.1122 15.1961 6.17353 15.3028 6.2962C15.4095 6.41886 15.4628 6.57353 15.4628 6.7602ZM15.9004 9.9522C15.9004 9.67486 15.9404 9.4162 16.0204 9.1762C16.1004 8.93086 16.2257 8.7122 16.3964 8.5202C16.5724 8.32286 16.799 8.15486 17.0764 8.0162L17.4684 7.8882C17.5964 7.8562 17.7297 7.8402 17.8684 7.8402C18.1297 7.8402 18.383 7.8962 18.6284 8.0082C18.879 8.11486 19.0924 8.2642 19.2684 8.4562C19.4497 8.6482 19.5884 8.87753 19.6844 9.1442C19.7804 9.40553 19.8284 9.67486 19.8284 9.9522C19.8284 10.2295 19.7857 10.4935 19.7004 10.7442C19.6204 10.9895 19.4924 11.2109 19.3164 11.4082C19.1457 11.6002 18.9297 11.7575 18.6684 11.8802C18.5404 11.9335 18.4097 11.9762 18.2764 12.0082C18.143 12.0402 18.0097 12.0562 17.8764 12.0562C17.3004 12.0562 16.8177 11.8429 16.4284 11.4162C16.2684 11.2455 16.135 11.0242 16.0284 10.7522L15.9324 10.3602L15.9004 9.9522ZM17.0604 9.9522C17.0604 10.2135 17.127 10.4482 17.2604 10.6562C17.399 10.8589 17.5937 10.9602 17.8444 10.9602C18.0844 10.9602 18.2897 10.8509 18.4604 10.6322C18.6044 10.4402 18.6764 10.2135 18.6764 9.9522C18.6764 9.6962 18.599 9.4642 18.4444 9.2562C18.295 9.04286 18.095 8.9362 17.8444 8.9362C17.6204 8.9362 17.423 9.0482 17.2524 9.2722C17.1244 9.4642 17.0604 9.69086 17.0604 9.9522Z" fill="#0172B1"/>
</svg>
