<svg width="40" height="40" viewBox="0 0 40 40" fill="none" xmlns="http://www.w3.org/2000/svg">
<circle cx="20" cy="20" r="20" fill="#D71A21"/>
<path d="M16 19H10.11C10.2959 17.7623 10.7378 16.577 11.4076 15.5198C12.0774 14.4626 12.9603 13.5567 14 12.86L15.79 11.66L14.69 10L12.9 11.2C11.3933 12.2041 10.1577 13.5646 9.30293 15.1607C8.44816 16.7569 8.00061 18.5394 8 20.35V27C8 27.5304 8.21071 28.0391 8.58579 28.4142C8.96086 28.7893 9.46957 29 10 29H16C16.5304 29 17.0391 28.7893 17.4142 28.4142C17.7893 28.0391 18 27.5304 18 27V21C18 20.4696 17.7893 19.9609 17.4142 19.5858C17.0391 19.2107 16.5304 19 16 19Z" fill="white"/>
<path d="M30 19H24.11C24.2959 17.7623 24.7378 16.577 25.4076 15.5198C26.0774 14.4626 26.9603 13.5567 28 12.86L29.79 11.66L28.7 10L26.9 11.2C25.3933 12.2041 24.1577 13.5646 23.3029 15.1607C22.4482 16.7569 22.0006 18.5394 22 20.35V27C22 27.5304 22.2107 28.0391 22.5858 28.4142C22.9609 28.7893 23.4696 29 24 29H30C30.5304 29 31.0391 28.7893 31.4142 28.4142C31.7893 28.0391 32 27.5304 32 27V21C32 20.4696 31.7893 19.9609 31.4142 19.5858C31.0391 19.2107 30.5304 19 30 19Z" fill="white"/>
</svg>
