<svg width="50" height="38" viewBox="0 0 50 38" fill="none" xmlns="http://www.w3.org/2000/svg">
<mask id="mask0_605_776" style="mask-type:alpha" maskUnits="userSpaceOnUse" x="0" y="5" width="23" height="33">
<path d="M5.625 10.625C5.625 13.7262 8.14875 16.25 11.25 16.25C14.3512 16.25 16.875 13.7262 16.875 10.625C16.875 7.52375 14.3512 5 11.25 5C8.14875 5 5.625 7.52375 5.625 10.625ZM21.25 37.5H22.5V31.25C22.5 26.4262 18.5737 18.75 13.75 18.75H8.75C3.925 18.75 0 26.4262 0 31.25V37.5H21.25Z" fill="black"/>
</mask>
<g mask="url(#mask0_605_776)">
<rect width="30" height="30" transform="matrix(1 0 0 -1 -5 32.5)" fill="#C4C4C4"/>
</g>
<mask id="mask1_605_776" style="mask-type:alpha" maskUnits="userSpaceOnUse" x="27" y="5" width="23" height="33">
<path d="M33.125 10.625C33.125 13.7262 35.6487 16.25 38.75 16.25C41.8512 16.25 44.375 13.7262 44.375 10.625C44.375 7.52375 41.8512 5 38.75 5C35.6487 5 33.125 7.52375 33.125 10.625ZM48.75 37.5H50V31.25C50 26.4262 46.0737 18.75 41.25 18.75H36.25C31.425 18.75 27.5 26.4262 27.5 31.25V37.5H48.75Z" fill="black"/>
</mask>
<g mask="url(#mask1_605_776)">
<rect width="30" height="30" transform="matrix(1 0 0 -1 25 32.5)" fill="#C4C4C4"/>
</g>
<path d="M19.375 5.625C19.375 8.72625 21.8987 11.25 25 11.25C28.1012 11.25 30.625 8.72625 30.625 5.625C30.625 2.52375 28.1012 0 25 0C21.8987 0 19.375 2.52375 19.375 5.625ZM35 32.5H36.25V26.25C36.25 21.4262 32.3237 13.75 27.5 13.75H22.5C17.675 13.75 13.75 21.4262 13.75 26.25V32.5H35Z" fill="#D71A21"/>
</svg>
