<svg width="48" height="48" viewBox="0 0 48 48" fill="none" xmlns="http://www.w3.org/2000/svg">
<circle cx="24" cy="24" r="24" fill="white"/>
<path d="M24 0C10.7452 0 0 10.7452 0 24C0 37.2548 10.7452 48 24 48C37.2548 48 48 37.2548 48 24C48 10.7452 37.2548 0 24 0ZM15.375 9.5332C15.8695 9.50404 16.3164 9.7996 16.6553 10.3242L19.9365 16.5468C20.282 17.2842 20.0857 18.0737 19.5703 18.6006L18.0674 20.1035C17.9746 20.2306 17.9136 20.3738 17.9121 20.5312C18.4885 22.7622 20.2368 24.8201 21.7794 26.2353C23.3218 27.6505 24.9797 29.5666 27.1318 30.0205C27.3978 30.0947 27.7237 30.1213 27.9141 29.9444L29.6602 28.166C30.2629 27.7092 31.1348 27.4878 31.7783 27.8614H31.8076L37.7284 31.3565C38.5976 31.9012 38.6876 32.9542 38.0654 33.5948L33.9873 37.6406C33.3851 38.2582 32.585 38.4659 31.8077 38.4668C28.3698 38.3638 25.1214 36.6764 22.4532 34.9424C18.0736 31.7563 14.0563 27.8046 11.5342 23.0303C10.5669 21.0283 9.43064 18.4739 9.53908 16.2393C9.54876 15.3987 9.7762 14.5751 10.3682 14.0333L14.4463 9.95516C14.764 9.68484 15.0783 9.55072 15.375 9.5332Z" fill="#00D308"/>
</svg>
